<svg width="402" height="172" viewBox="0 0 402 172" fill="none" xmlns="http://www.w3.org/2000/svg">
                                    <rect x="172.5" y="0.5" width="89" height="44" fill="#8E8E8E" stroke="black" />
                                    <rect x="32" y="2" width="88" height="43" stroke="black" stroke-width="2" />
                                    <path d="M56.2227 22.4336H57.8633V32.7754C57.8633 33.7064 57.6745 34.5007 57.2969 35.1582C56.9193 35.8158 56.3919 36.3138 55.7148 36.6523C55.0443 36.9974 54.2695 37.1699 53.3906 37.1699C53.026 37.1699 52.5964 37.1113 52.1016 36.9941C51.6133 36.8835 51.1315 36.6914 50.6562 36.418C50.1875 36.151 49.7936 35.7897 49.4746 35.334L50.4219 34.2598C50.8646 34.7936 51.3268 35.1647 51.8086 35.373C52.2969 35.5814 52.7786 35.6855 53.2539 35.6855C53.8268 35.6855 54.3216 35.5781 54.7383 35.3633C55.1549 35.1484 55.4772 34.8294 55.7051 34.4062C55.9395 33.9896 56.0566 33.4753 56.0566 32.8633V24.7578L56.2227 22.4336ZM48.9473 27.834V27.6289C48.9473 26.8216 49.0417 26.0892 49.2305 25.4316C49.4258 24.7676 49.7025 24.1979 50.0605 23.7227C50.4251 23.2474 50.8646 22.8828 51.3789 22.6289C51.8932 22.3685 52.4727 22.2383 53.1172 22.2383C53.7812 22.2383 54.3607 22.3555 54.8555 22.5898C55.3568 22.8177 55.7799 23.153 56.125 23.5957C56.4766 24.0319 56.7533 24.5592 56.9551 25.1777C57.1569 25.7962 57.2969 26.4961 57.375 27.2773V28.1758C57.3034 28.9505 57.1634 29.6471 56.9551 30.2656C56.7533 30.8841 56.4766 31.4115 56.125 31.8477C55.7799 32.2839 55.3568 32.6191 54.8555 32.8535C54.3542 33.0814 53.7682 33.1953 53.0977 33.1953C52.4661 33.1953 51.8932 33.0618 51.3789 32.7949C50.8711 32.528 50.4349 32.1536 50.0703 31.6719C49.7057 31.1901 49.4258 30.6237 49.2305 29.9727C49.0417 29.3151 48.9473 28.6022 48.9473 27.834ZM50.7539 27.6289V27.834C50.7539 28.3613 50.806 28.8561 50.9102 29.3184C51.0208 29.7806 51.1868 30.1875 51.4082 30.5391C51.6361 30.8906 51.9258 31.1673 52.2773 31.3691C52.6289 31.5645 53.0488 31.6621 53.5371 31.6621C54.1361 31.6621 54.6309 31.5352 55.0215 31.2812C55.4121 31.0273 55.7214 30.6921 55.9492 30.2754C56.1836 29.8587 56.3659 29.4062 56.4961 28.918V26.5645C56.4245 26.2064 56.3138 25.8613 56.1641 25.5293C56.0208 25.1908 55.832 24.8913 55.5977 24.6309C55.3698 24.3639 55.0866 24.1523 54.748 23.9961C54.4095 23.8398 54.0124 23.7617 53.5566 23.7617C53.0618 23.7617 52.6354 23.8659 52.2773 24.0742C51.9258 24.276 51.6361 24.556 51.4082 24.9141C51.1868 25.2656 51.0208 25.6758 50.9102 26.1445C50.806 26.6068 50.7539 27.1016 50.7539 27.6289ZM67.0723 30.5586V22.4336H68.8887V33H67.1602L67.0723 30.5586ZM67.4141 28.332L68.166 28.3125C68.166 29.0156 68.0911 29.6667 67.9414 30.2656C67.7982 30.8581 67.5638 31.3724 67.2383 31.8086C66.9128 32.2448 66.4863 32.5866 65.959 32.834C65.4316 33.0749 64.7904 33.1953 64.0352 33.1953C63.5208 33.1953 63.0488 33.1204 62.6191 32.9707C62.196 32.821 61.8314 32.5898 61.5254 32.2773C61.2194 31.9648 60.9818 31.5579 60.8125 31.0566C60.6497 30.5553 60.5684 29.9531 60.5684 29.25V22.4336H62.375V29.2695C62.375 29.7448 62.4271 30.1387 62.5312 30.4512C62.6419 30.7572 62.7884 31.0013 62.9707 31.1836C63.1595 31.3594 63.3678 31.4831 63.5957 31.5547C63.8301 31.6263 64.071 31.6621 64.3184 31.6621C65.0866 31.6621 65.6953 31.5156 66.1445 31.2227C66.5938 30.9232 66.916 30.5228 67.1113 30.0215C67.3132 29.5137 67.4141 28.9505 67.4141 28.332ZM74.6113 31.9062L77.5508 22.4336H79.4844L75.2461 34.6309C75.1484 34.8913 75.0182 35.1712 74.8555 35.4707C74.6992 35.7767 74.4974 36.0664 74.25 36.3398C74.0026 36.6133 73.7031 36.8346 73.3516 37.0039C73.0065 37.1797 72.5931 37.2676 72.1113 37.2676C71.9681 37.2676 71.7858 37.248 71.5645 37.209C71.3431 37.1699 71.1868 37.1374 71.0957 37.1113L71.0859 35.6465C71.138 35.653 71.2194 35.6595 71.3301 35.666C71.4473 35.679 71.5286 35.6855 71.5742 35.6855C71.9844 35.6855 72.3327 35.6302 72.6191 35.5195C72.9056 35.4154 73.1465 35.2363 73.3418 34.9824C73.5436 34.735 73.7161 34.3932 73.8594 33.957L74.6113 31.9062ZM72.4531 22.4336L75.1973 30.6367L75.666 32.541L74.3672 33.2051L70.4805 22.4336H72.4531ZM87.1895 31.1934V25.7539C87.1895 25.3372 87.1048 24.9759 86.9355 24.6699C86.7728 24.3574 86.5254 24.1165 86.1934 23.9473C85.8613 23.778 85.4512 23.6934 84.9629 23.6934C84.5072 23.6934 84.1068 23.7715 83.7617 23.9277C83.4232 24.084 83.1562 24.2891 82.9609 24.543C82.7721 24.7969 82.6777 25.0703 82.6777 25.3633H80.8711C80.8711 24.9857 80.9688 24.6113 81.1641 24.2402C81.3594 23.8691 81.6393 23.5339 82.0039 23.2344C82.375 22.9284 82.8177 22.6875 83.332 22.5117C83.8529 22.3294 84.4323 22.2383 85.0703 22.2383C85.8385 22.2383 86.5156 22.3685 87.1016 22.6289C87.694 22.8893 88.1562 23.2832 88.4883 23.8105C88.8268 24.3314 88.9961 24.9857 88.9961 25.7734V30.6953C88.9961 31.0469 89.0254 31.4212 89.084 31.8184C89.1491 32.2155 89.2435 32.5573 89.3672 32.8438V33H87.4824C87.3913 32.7917 87.3197 32.515 87.2676 32.1699C87.2155 31.8184 87.1895 31.4928 87.1895 31.1934ZM87.502 26.5938L87.5215 27.8633H85.6953C85.181 27.8633 84.722 27.9056 84.3184 27.9902C83.9147 28.0684 83.5762 28.1888 83.3027 28.3516C83.0293 28.5143 82.821 28.7194 82.6777 28.9668C82.5345 29.2077 82.4629 29.4909 82.4629 29.8164C82.4629 30.1484 82.5378 30.4512 82.6875 30.7246C82.8372 30.998 83.0618 31.2161 83.3613 31.3789C83.6673 31.5352 84.0417 31.6133 84.4844 31.6133C85.0378 31.6133 85.526 31.4961 85.9492 31.2617C86.3724 31.0273 86.7077 30.7409 86.9551 30.4023C87.209 30.0638 87.3457 29.735 87.3652 29.416L88.1367 30.2852C88.0911 30.5586 87.9674 30.8613 87.7656 31.1934C87.5638 31.5254 87.2936 31.8444 86.9551 32.1504C86.623 32.4499 86.2259 32.7005 85.7637 32.9023C85.3079 33.0977 84.7936 33.1953 84.2207 33.1953C83.5046 33.1953 82.8763 33.0553 82.3359 32.7754C81.8021 32.4954 81.3854 32.1211 81.0859 31.6523C80.793 31.1771 80.6465 30.6465 80.6465 30.0605C80.6465 29.4941 80.7572 28.9961 80.9785 28.5664C81.1999 28.1302 81.5189 27.7689 81.9355 27.4824C82.3522 27.1895 82.8535 26.9681 83.4395 26.8184C84.0254 26.6686 84.6797 26.5938 85.4023 26.5938H87.502Z" fill="black" />
                                    <path d="M202.406 28.043C202.406 27.737 202.501 27.4798 202.689 27.2715C202.885 27.0566 203.165 26.9492 203.529 26.9492C203.894 26.9492 204.171 27.0566 204.359 27.2715C204.555 27.4798 204.652 27.737 204.652 28.043C204.652 28.3424 204.555 28.5964 204.359 28.8047C204.171 29.013 203.894 29.1172 203.529 29.1172C203.165 29.1172 202.885 29.013 202.689 28.8047C202.501 28.5964 202.406 28.3424 202.406 28.043ZM207.68 28.043C207.68 27.737 207.774 27.4798 207.963 27.2715C208.158 27.0566 208.438 26.9492 208.803 26.9492C209.167 26.9492 209.444 27.0566 209.633 27.2715C209.828 27.4798 209.926 27.737 209.926 28.043C209.926 28.3424 209.828 28.5964 209.633 28.8047C209.444 29.013 209.167 29.1172 208.803 29.1172C208.438 29.1172 208.158 29.013 207.963 28.8047C207.774 28.5964 207.68 28.3424 207.68 28.043ZM212.953 28.043C212.953 27.737 213.048 27.4798 213.236 27.2715C213.432 27.0566 213.712 26.9492 214.076 26.9492C214.441 26.9492 214.717 27.0566 214.906 27.2715C215.102 27.4798 215.199 27.737 215.199 28.043C215.199 28.3424 215.102 28.5964 214.906 28.8047C214.717 29.013 214.441 29.1172 214.076 29.1172C213.712 29.1172 213.432 29.013 213.236 28.8047C213.048 28.5964 212.953 28.3424 212.953 28.043ZM218.227 28.043C218.227 27.737 218.321 27.4798 218.51 27.2715C218.705 27.0566 218.985 26.9492 219.35 26.9492C219.714 26.9492 219.991 27.0566 220.18 27.2715C220.375 27.4798 220.473 27.737 220.473 28.043C220.473 28.3424 220.375 28.5964 220.18 28.8047C219.991 29.013 219.714 29.1172 219.35 29.1172C218.985 29.1172 218.705 29.013 218.51 28.8047C218.321 28.5964 218.227 28.3424 218.227 28.043ZM223.5 28.043C223.5 27.737 223.594 27.4798 223.783 27.2715C223.979 27.0566 224.258 26.9492 224.623 26.9492C224.988 26.9492 225.264 27.0566 225.453 27.2715C225.648 27.4798 225.746 27.737 225.746 28.043C225.746 28.3424 225.648 28.5964 225.453 28.8047C225.264 29.013 224.988 29.1172 224.623 29.1172C224.258 29.1172 223.979 29.013 223.783 28.8047C223.594 28.5964 223.5 28.3424 223.5 28.043Z" fill="black" />
                                    <rect x="32" y="66" width="88" height="43" stroke="black" stroke-width="2" />
                                    <path d="M51.3398 86.4336V97H49.5234V86.4336H51.3398ZM49.3867 83.6309C49.3867 83.3379 49.4746 83.0905 49.6504 82.8887C49.8327 82.6868 50.0996 82.5859 50.4512 82.5859C50.7962 82.5859 51.0599 82.6868 51.2422 82.8887C51.431 83.0905 51.5254 83.3379 51.5254 83.6309C51.5254 83.9108 51.431 84.1517 51.2422 84.3535C51.0599 84.5488 50.7962 84.6465 50.4512 84.6465C50.0996 84.6465 49.8327 84.5488 49.6504 84.3535C49.4746 84.1517 49.3867 83.9108 49.3867 83.6309ZM56.0469 88.0938V97H54.2402V86.4336H55.998L56.0469 88.0938ZM59.3477 86.375L59.3379 88.0547C59.1882 88.0221 59.0449 88.0026 58.9082 87.9961C58.778 87.9831 58.6283 87.9766 58.459 87.9766C58.0423 87.9766 57.6745 88.0417 57.3555 88.1719C57.0365 88.3021 56.7663 88.4844 56.5449 88.7188C56.3236 88.9531 56.1478 89.2331 56.0176 89.5586C55.8939 89.8776 55.8125 90.2292 55.7734 90.6133L55.2656 90.9062C55.2656 90.2682 55.3275 89.6693 55.4512 89.1094C55.5814 88.5495 55.7799 88.0547 56.0469 87.625C56.3138 87.1888 56.6523 86.8503 57.0625 86.6094C57.4792 86.362 57.974 86.2383 58.5469 86.2383C58.6771 86.2383 58.8268 86.2546 58.9961 86.2871C59.1654 86.3132 59.2826 86.3424 59.3477 86.375ZM64.6406 86.2188C65.3698 86.2188 66.0273 86.349 66.6133 86.6094C67.2057 86.8698 67.7103 87.2376 68.127 87.7129C68.5436 88.1816 68.8626 88.7383 69.084 89.3828C69.3118 90.0273 69.4258 90.7337 69.4258 91.502V91.9316C69.4258 92.6999 69.3021 93.4062 69.0547 94.0508C68.8138 94.6953 68.4818 95.252 68.0586 95.7207C67.6354 96.1895 67.1536 96.554 66.6133 96.8145C66.0729 97.0684 65.5065 97.1921 64.9141 97.1855C64.1849 97.1855 63.5501 97.0716 63.0098 96.8438C62.4694 96.6094 62.0202 96.2839 61.6621 95.8672C61.3105 95.444 61.0469 94.946 60.8711 94.373C60.6953 93.8001 60.6074 93.1686 60.6074 92.4785V91.2871H68.3516V92.7715H62.4141V93.0156C62.4141 93.4844 62.502 93.9238 62.6777 94.334C62.8535 94.7441 63.127 95.0762 63.498 95.3301C63.8691 95.584 64.3411 95.7109 64.9141 95.7109C65.3047 95.7109 65.6628 95.6133 65.9883 95.418C66.3203 95.2227 66.6068 94.9525 66.8477 94.6074C67.0885 94.2624 67.2741 93.862 67.4043 93.4062C67.541 92.944 67.6094 92.4525 67.6094 91.9316V91.502C67.6094 90.9811 67.5443 90.4928 67.4141 90.0371C67.2904 89.5749 67.1048 89.1712 66.8574 88.8262C66.61 88.4746 66.3008 88.2012 65.9297 88.0059C65.5586 87.804 65.1289 87.7031 64.6406 87.7031C63.931 87.7031 63.332 87.8073 62.8438 88.0156C62.3555 88.2174 61.9486 88.4648 61.623 88.7578L60.9102 87.5273C61.2357 87.2148 61.6979 86.9186 62.2969 86.6387C62.9023 86.3587 63.6836 86.2188 64.6406 86.2188ZM73.5273 82V97H71.7109V82H73.5273ZM78.3906 86.4336V97H76.5742V86.4336H78.3906ZM76.4375 83.6309C76.4375 83.3379 76.5254 83.0905 76.7012 82.8887C76.8835 82.6868 77.1504 82.5859 77.502 82.5859C77.847 82.5859 78.1107 82.6868 78.293 82.8887C78.4818 83.0905 78.5762 83.3379 78.5762 83.6309C78.5762 83.9108 78.4818 84.1517 78.293 84.3535C78.1107 84.5488 77.847 84.6465 77.502 84.6465C77.1504 84.6465 76.8835 84.5488 76.7012 84.3535C76.5254 84.1517 76.4375 83.9108 76.4375 83.6309Z" fill="black" />
                                    <rect x="32" y="127" width="88" height="43" stroke="black" stroke-width="2" />
                                    <path d="M55.6074 156.193V150.754C55.6074 150.337 55.5228 149.976 55.3535 149.67C55.1908 149.357 54.9434 149.117 54.6113 148.947C54.2793 148.778 53.8691 148.693 53.3809 148.693C52.9251 148.693 52.5247 148.771 52.1797 148.928C51.8411 149.084 51.5742 149.289 51.3789 149.543C51.1901 149.797 51.0957 150.07 51.0957 150.363H49.2891C49.2891 149.986 49.3867 149.611 49.582 149.24C49.7773 148.869 50.0573 148.534 50.4219 148.234C50.793 147.928 51.2357 147.688 51.75 147.512C52.2708 147.329 52.8503 147.238 53.4883 147.238C54.2565 147.238 54.9336 147.368 55.5195 147.629C56.112 147.889 56.5742 148.283 56.9062 148.811C57.2448 149.331 57.4141 149.986 57.4141 150.773V155.695C57.4141 156.047 57.4434 156.421 57.502 156.818C57.5671 157.215 57.6615 157.557 57.7852 157.844V158H55.9004C55.8092 157.792 55.7376 157.515 55.6855 157.17C55.6335 156.818 55.6074 156.493 55.6074 156.193ZM55.9199 151.594L55.9395 152.863H54.1133C53.599 152.863 53.14 152.906 52.7363 152.99C52.3327 153.068 51.9941 153.189 51.7207 153.352C51.4473 153.514 51.2389 153.719 51.0957 153.967C50.9525 154.208 50.8809 154.491 50.8809 154.816C50.8809 155.148 50.9557 155.451 51.1055 155.725C51.2552 155.998 51.4798 156.216 51.7793 156.379C52.0853 156.535 52.4596 156.613 52.9023 156.613C53.4557 156.613 53.944 156.496 54.3672 156.262C54.7904 156.027 55.1257 155.741 55.373 155.402C55.627 155.064 55.7637 154.735 55.7832 154.416L56.5547 155.285C56.5091 155.559 56.3854 155.861 56.1836 156.193C55.9818 156.525 55.7116 156.844 55.373 157.15C55.041 157.45 54.6439 157.701 54.1816 157.902C53.7259 158.098 53.2116 158.195 52.6387 158.195C51.9225 158.195 51.2943 158.055 50.7539 157.775C50.2201 157.495 49.8034 157.121 49.5039 156.652C49.2109 156.177 49.0645 155.646 49.0645 155.061C49.0645 154.494 49.1751 153.996 49.3965 153.566C49.6178 153.13 49.9368 152.769 50.3535 152.482C50.7702 152.189 51.2715 151.968 51.8574 151.818C52.4434 151.669 53.0977 151.594 53.8203 151.594H55.9199ZM64.4844 156.711C64.9141 156.711 65.3112 156.623 65.6758 156.447C66.0404 156.271 66.3398 156.031 66.5742 155.725C66.8086 155.412 66.9421 155.057 66.9746 154.66H68.6934C68.6608 155.285 68.4492 155.868 68.0586 156.408C67.6745 156.942 67.1699 157.375 66.5449 157.707C65.9199 158.033 65.2331 158.195 64.4844 158.195C63.6901 158.195 62.9967 158.055 62.4043 157.775C61.8184 157.495 61.3301 157.111 60.9395 156.623C60.5553 156.135 60.2656 155.575 60.0703 154.943C59.8815 154.305 59.7871 153.632 59.7871 152.922V152.512C59.7871 151.802 59.8815 151.132 60.0703 150.5C60.2656 149.862 60.5553 149.299 60.9395 148.811C61.3301 148.322 61.8184 147.938 62.4043 147.658C62.9967 147.378 63.6901 147.238 64.4844 147.238C65.3112 147.238 66.0339 147.408 66.6523 147.746C67.2708 148.078 67.7559 148.534 68.1074 149.113C68.4655 149.686 68.6608 150.337 68.6934 151.066H66.9746C66.9421 150.63 66.8184 150.236 66.6035 149.885C66.3952 149.533 66.1087 149.253 65.7441 149.045C65.3861 148.83 64.9661 148.723 64.4844 148.723C63.931 148.723 63.4655 148.833 63.0879 149.055C62.7168 149.27 62.4206 149.562 62.1992 149.934C61.9844 150.298 61.8281 150.705 61.7305 151.154C61.6393 151.597 61.5938 152.049 61.5938 152.512V152.922C61.5938 153.384 61.6393 153.84 61.7305 154.289C61.8216 154.738 61.9746 155.145 62.1895 155.51C62.4108 155.874 62.707 156.167 63.0781 156.389C63.4557 156.604 63.9245 156.711 64.4844 156.711ZM72.6777 147.434V158H70.8711V147.434H72.6777Z" fill="black" />
                                    <rect x="313" y="2" width="88" height="43" stroke="black" stroke-width="2" />
                                    <path d="M330.367 18H332.184V30.9492L332.027 33H330.367V18ZM339.322 27.6289V27.834C339.322 28.6022 339.231 29.3151 339.049 29.9727C338.867 30.6237 338.6 31.1901 338.248 31.6719C337.896 32.1536 337.467 32.528 336.959 32.7949C336.451 33.0618 335.868 33.1953 335.211 33.1953C334.54 33.1953 333.951 33.0814 333.443 32.8535C332.942 32.6191 332.519 32.2839 332.174 31.8477C331.829 31.4115 331.552 30.8841 331.344 30.2656C331.142 29.6471 331.002 28.9505 330.924 28.1758V27.2773C331.002 26.4961 331.142 25.7962 331.344 25.1777C331.552 24.5592 331.829 24.0319 332.174 23.5957C332.519 23.153 332.942 22.8177 333.443 22.5898C333.945 22.3555 334.527 22.2383 335.191 22.2383C335.855 22.2383 336.445 22.3685 336.959 22.6289C337.473 22.8828 337.903 23.2474 338.248 23.7227C338.6 24.1979 338.867 24.7676 339.049 25.4316C339.231 26.0892 339.322 26.8216 339.322 27.6289ZM337.506 27.834V27.6289C337.506 27.1016 337.457 26.6068 337.359 26.1445C337.262 25.6758 337.105 25.2656 336.891 24.9141C336.676 24.556 336.393 24.276 336.041 24.0742C335.689 23.8659 335.257 23.7617 334.742 23.7617C334.286 23.7617 333.889 23.8398 333.551 23.9961C333.219 24.1523 332.936 24.3639 332.701 24.6309C332.467 24.8913 332.275 25.1908 332.125 25.5293C331.982 25.8613 331.874 26.2064 331.803 26.5645V28.918C331.907 29.3737 332.076 29.8132 332.311 30.2363C332.551 30.653 332.87 30.9948 333.268 31.2617C333.671 31.5286 334.169 31.6621 334.762 31.6621C335.25 31.6621 335.667 31.5645 336.012 31.3691C336.363 31.1673 336.646 30.8906 336.861 30.5391C337.083 30.1875 337.245 29.7806 337.35 29.3184C337.454 28.8561 337.506 28.3613 337.506 27.834ZM345.23 22.2188C345.96 22.2188 346.617 22.349 347.203 22.6094C347.796 22.8698 348.3 23.2376 348.717 23.7129C349.133 24.1816 349.452 24.7383 349.674 25.3828C349.902 26.0273 350.016 26.7337 350.016 27.502V27.9316C350.016 28.6999 349.892 29.4062 349.645 30.0508C349.404 30.6953 349.072 31.252 348.648 31.7207C348.225 32.1895 347.743 32.554 347.203 32.8145C346.663 33.0684 346.096 33.1921 345.504 33.1855C344.775 33.1855 344.14 33.0716 343.6 32.8438C343.059 32.6094 342.61 32.2839 342.252 31.8672C341.9 31.444 341.637 30.946 341.461 30.373C341.285 29.8001 341.197 29.1686 341.197 28.4785V27.2871H348.941V28.7715H343.004V29.0156C343.004 29.4844 343.092 29.9238 343.268 30.334C343.443 30.7441 343.717 31.0762 344.088 31.3301C344.459 31.584 344.931 31.7109 345.504 31.7109C345.895 31.7109 346.253 31.6133 346.578 31.418C346.91 31.2227 347.197 30.9525 347.438 30.6074C347.678 30.2624 347.864 29.862 347.994 29.4062C348.131 28.944 348.199 28.4525 348.199 27.9316V27.502C348.199 26.9811 348.134 26.4928 348.004 26.0371C347.88 25.5749 347.695 25.1712 347.447 24.8262C347.2 24.4746 346.891 24.2012 346.52 24.0059C346.148 23.804 345.719 23.7031 345.23 23.7031C344.521 23.7031 343.922 23.8073 343.434 24.0156C342.945 24.2174 342.538 24.4648 342.213 24.7578L341.5 23.5273C341.826 23.2148 342.288 22.9186 342.887 22.6387C343.492 22.3587 344.273 22.2188 345.23 22.2188ZM354.117 18V33H352.301V18H354.117ZM358.834 18V33H357.018V18H358.834ZM365.289 22.4336L360.68 27.3652L358.102 30.041L357.955 28.1172L359.801 25.9102L363.082 22.4336H365.289ZM363.639 33L359.869 27.9609L360.807 26.3496L365.768 33H363.639ZM370.777 22.2188C371.507 22.2188 372.164 22.349 372.75 22.6094C373.342 22.8698 373.847 23.2376 374.264 23.7129C374.68 24.1816 374.999 24.7383 375.221 25.3828C375.449 26.0273 375.562 26.7337 375.562 27.502V27.9316C375.562 28.6999 375.439 29.4062 375.191 30.0508C374.951 30.6953 374.618 31.252 374.195 31.7207C373.772 32.1895 373.29 32.554 372.75 32.8145C372.21 33.0684 371.643 33.1921 371.051 33.1855C370.322 33.1855 369.687 33.0716 369.146 32.8438C368.606 32.6094 368.157 32.2839 367.799 31.8672C367.447 31.444 367.184 30.946 367.008 30.373C366.832 29.8001 366.744 29.1686 366.744 28.4785V27.2871H374.488V28.7715H368.551V29.0156C368.551 29.4844 368.639 29.9238 368.814 30.334C368.99 30.7441 369.264 31.0762 369.635 31.3301C370.006 31.584 370.478 31.7109 371.051 31.7109C371.441 31.7109 371.799 31.6133 372.125 31.418C372.457 31.2227 372.743 30.9525 372.984 30.6074C373.225 30.2624 373.411 29.862 373.541 29.4062C373.678 28.944 373.746 28.4525 373.746 27.9316V27.502C373.746 26.9811 373.681 26.4928 373.551 26.0371C373.427 25.5749 373.242 25.1712 372.994 24.8262C372.747 24.4746 372.438 24.2012 372.066 24.0059C371.695 23.804 371.266 23.7031 370.777 23.7031C370.068 23.7031 369.469 23.8073 368.98 24.0156C368.492 24.2174 368.085 24.4648 367.76 24.7578L367.047 23.5273C367.372 23.2148 367.835 22.9186 368.434 22.6387C369.039 22.3587 369.82 22.2188 370.777 22.2188Z" fill="black" />
                                    <rect x="313" y="63" width="88" height="43" stroke="black" stroke-width="2" />
                                    <path d="M334.605 92.7109C335.035 92.7109 335.432 92.623 335.797 92.4473C336.161 92.2715 336.461 92.0306 336.695 91.7246C336.93 91.4121 337.063 91.0573 337.096 90.6602H338.814C338.782 91.2852 338.57 91.8678 338.18 92.4082C337.796 92.9421 337.291 93.375 336.666 93.707C336.041 94.0326 335.354 94.1953 334.605 94.1953C333.811 94.1953 333.118 94.0553 332.525 93.7754C331.939 93.4954 331.451 93.1113 331.061 92.623C330.676 92.1348 330.387 91.5749 330.191 90.9434C330.003 90.3053 329.908 89.6315 329.908 88.9219V88.5117C329.908 87.8021 330.003 87.1315 330.191 86.5C330.387 85.862 330.676 85.2988 331.061 84.8105C331.451 84.3223 331.939 83.9382 332.525 83.6582C333.118 83.3783 333.811 83.2383 334.605 83.2383C335.432 83.2383 336.155 83.4076 336.773 83.7461C337.392 84.0781 337.877 84.5339 338.229 85.1133C338.587 85.6862 338.782 86.3372 338.814 87.0664H337.096C337.063 86.6302 336.939 86.2363 336.725 85.8848C336.516 85.5332 336.23 85.2533 335.865 85.0449C335.507 84.8301 335.087 84.7227 334.605 84.7227C334.052 84.7227 333.587 84.8333 333.209 85.0547C332.838 85.2695 332.542 85.5625 332.32 85.9336C332.105 86.2982 331.949 86.7051 331.852 87.1543C331.76 87.597 331.715 88.0495 331.715 88.5117V88.9219C331.715 89.3841 331.76 89.8398 331.852 90.2891C331.943 90.7383 332.096 91.1452 332.311 91.5098C332.532 91.8743 332.828 92.1673 333.199 92.3887C333.577 92.6035 334.046 92.7109 334.605 92.7109ZM344.469 83.2188C345.198 83.2188 345.855 83.349 346.441 83.6094C347.034 83.8698 347.538 84.2376 347.955 84.7129C348.372 85.1816 348.691 85.7383 348.912 86.3828C349.14 87.0273 349.254 87.7337 349.254 88.502V88.9316C349.254 89.6999 349.13 90.4062 348.883 91.0508C348.642 91.6953 348.31 92.252 347.887 92.7207C347.464 93.1895 346.982 93.554 346.441 93.8145C345.901 94.0684 345.335 94.1921 344.742 94.1855C344.013 94.1855 343.378 94.0716 342.838 93.8438C342.298 93.6094 341.848 93.2839 341.49 92.8672C341.139 92.444 340.875 91.946 340.699 91.373C340.523 90.8001 340.436 90.1686 340.436 89.4785V88.2871H348.18V89.7715H342.242V90.0156C342.242 90.4844 342.33 90.9238 342.506 91.334C342.682 91.7441 342.955 92.0762 343.326 92.3301C343.697 92.584 344.169 92.7109 344.742 92.7109C345.133 92.7109 345.491 92.6133 345.816 92.418C346.148 92.2227 346.435 91.9525 346.676 91.6074C346.917 91.2624 347.102 90.862 347.232 90.4062C347.369 89.944 347.438 89.4525 347.438 88.9316V88.502C347.438 87.9811 347.372 87.4928 347.242 87.0371C347.118 86.5749 346.933 86.1712 346.686 85.8262C346.438 85.4746 346.129 85.2012 345.758 85.0059C345.387 84.804 344.957 84.7031 344.469 84.7031C343.759 84.7031 343.16 84.8073 342.672 85.0156C342.184 85.2174 341.777 85.4648 341.451 85.7578L340.738 84.5273C341.064 84.2148 341.526 83.9186 342.125 83.6387C342.73 83.3587 343.512 83.2188 344.469 83.2188ZM353.355 79V94H351.539V79H353.355ZM362.916 91.9492V79H364.732V94H363.072L362.916 91.9492ZM355.807 88.834V88.6289C355.807 87.8216 355.904 87.0892 356.1 86.4316C356.301 85.7676 356.585 85.1979 356.949 84.7227C357.32 84.2474 357.76 83.8828 358.268 83.6289C358.782 83.3685 359.355 83.2383 359.986 83.2383C360.65 83.2383 361.23 83.3555 361.725 83.5898C362.226 83.8177 362.649 84.153 362.994 84.5957C363.346 85.0319 363.622 85.5592 363.824 86.1777C364.026 86.7962 364.166 87.4961 364.244 88.2773V89.1758C364.173 89.9505 364.033 90.6471 363.824 91.2656C363.622 91.8841 363.346 92.4115 362.994 92.8477C362.649 93.2839 362.226 93.6191 361.725 93.8535C361.223 94.0814 360.637 94.1953 359.967 94.1953C359.348 94.1953 358.782 94.0618 358.268 93.7949C357.76 93.528 357.32 93.1536 356.949 92.6719C356.585 92.1901 356.301 91.6237 356.1 90.9727C355.904 90.3151 355.807 89.6022 355.807 88.834ZM357.623 88.6289V88.834C357.623 89.3613 357.675 89.8561 357.779 90.3184C357.89 90.7806 358.059 91.1875 358.287 91.5391C358.515 91.8906 358.805 92.1673 359.156 92.3691C359.508 92.5645 359.928 92.6621 360.416 92.6621C361.015 92.6621 361.507 92.5352 361.891 92.2812C362.281 92.0273 362.594 91.6921 362.828 91.2754C363.062 90.8587 363.245 90.4062 363.375 89.918V87.5645C363.297 87.2064 363.183 86.8613 363.033 86.5293C362.89 86.1908 362.701 85.8913 362.467 85.6309C362.239 85.3639 361.956 85.1523 361.617 84.9961C361.285 84.8398 360.891 84.7617 360.436 84.7617C359.941 84.7617 359.514 84.8659 359.156 85.0742C358.805 85.276 358.515 85.556 358.287 85.9141C358.059 86.2656 357.89 86.6758 357.779 87.1445C357.675 87.6068 357.623 88.1016 357.623 88.6289Z" fill="black" />
                                    <rect x="313" y="127" width="88" height="43" stroke="black" stroke-width="2" />
                                    <path d="M337.223 147.434H338.863V157.775C338.863 158.706 338.674 159.501 338.297 160.158C337.919 160.816 337.392 161.314 336.715 161.652C336.044 161.997 335.27 162.17 334.391 162.17C334.026 162.17 333.596 162.111 333.102 161.994C332.613 161.883 332.132 161.691 331.656 161.418C331.188 161.151 330.794 160.79 330.475 160.334L331.422 159.26C331.865 159.794 332.327 160.165 332.809 160.373C333.297 160.581 333.779 160.686 334.254 160.686C334.827 160.686 335.322 160.578 335.738 160.363C336.155 160.148 336.477 159.829 336.705 159.406C336.939 158.99 337.057 158.475 337.057 157.863V149.758L337.223 147.434ZM329.947 152.834V152.629C329.947 151.822 330.042 151.089 330.23 150.432C330.426 149.768 330.702 149.198 331.061 148.723C331.425 148.247 331.865 147.883 332.379 147.629C332.893 147.368 333.473 147.238 334.117 147.238C334.781 147.238 335.361 147.355 335.855 147.59C336.357 147.818 336.78 148.153 337.125 148.596C337.477 149.032 337.753 149.559 337.955 150.178C338.157 150.796 338.297 151.496 338.375 152.277V153.176C338.303 153.951 338.163 154.647 337.955 155.266C337.753 155.884 337.477 156.411 337.125 156.848C336.78 157.284 336.357 157.619 335.855 157.854C335.354 158.081 334.768 158.195 334.098 158.195C333.466 158.195 332.893 158.062 332.379 157.795C331.871 157.528 331.435 157.154 331.07 156.672C330.706 156.19 330.426 155.624 330.23 154.973C330.042 154.315 329.947 153.602 329.947 152.834ZM331.754 152.629V152.834C331.754 153.361 331.806 153.856 331.91 154.318C332.021 154.781 332.187 155.188 332.408 155.539C332.636 155.891 332.926 156.167 333.277 156.369C333.629 156.564 334.049 156.662 334.537 156.662C335.136 156.662 335.631 156.535 336.021 156.281C336.412 156.027 336.721 155.692 336.949 155.275C337.184 154.859 337.366 154.406 337.496 153.918V151.564C337.424 151.206 337.314 150.861 337.164 150.529C337.021 150.191 336.832 149.891 336.598 149.631C336.37 149.364 336.087 149.152 335.748 148.996C335.41 148.84 335.012 148.762 334.557 148.762C334.062 148.762 333.635 148.866 333.277 149.074C332.926 149.276 332.636 149.556 332.408 149.914C332.187 150.266 332.021 150.676 331.91 151.145C331.806 151.607 331.754 152.102 331.754 152.629ZM341.129 152.834V152.609C341.129 151.848 341.24 151.141 341.461 150.49C341.682 149.833 342.001 149.263 342.418 148.781C342.835 148.293 343.339 147.915 343.932 147.648C344.524 147.375 345.188 147.238 345.924 147.238C346.666 147.238 347.333 147.375 347.926 147.648C348.525 147.915 349.033 148.293 349.449 148.781C349.872 149.263 350.195 149.833 350.416 150.49C350.637 151.141 350.748 151.848 350.748 152.609V152.834C350.748 153.596 350.637 154.302 350.416 154.953C350.195 155.604 349.872 156.174 349.449 156.662C349.033 157.144 348.528 157.521 347.936 157.795C347.35 158.062 346.686 158.195 345.943 158.195C345.201 158.195 344.534 158.062 343.941 157.795C343.349 157.521 342.841 157.144 342.418 156.662C342.001 156.174 341.682 155.604 341.461 154.953C341.24 154.302 341.129 153.596 341.129 152.834ZM342.936 152.609V152.834C342.936 153.361 342.997 153.859 343.121 154.328C343.245 154.79 343.43 155.201 343.678 155.559C343.932 155.917 344.247 156.2 344.625 156.408C345.003 156.61 345.442 156.711 345.943 156.711C346.438 156.711 346.871 156.61 347.242 156.408C347.62 156.2 347.932 155.917 348.18 155.559C348.427 155.201 348.613 154.79 348.736 154.328C348.867 153.859 348.932 153.361 348.932 152.834V152.609C348.932 152.089 348.867 151.597 348.736 151.135C348.613 150.666 348.424 150.253 348.17 149.895C347.923 149.53 347.61 149.243 347.232 149.035C346.861 148.827 346.425 148.723 345.924 148.723C345.429 148.723 344.993 148.827 344.615 149.035C344.244 149.243 343.932 149.53 343.678 149.895C343.43 150.253 343.245 150.666 343.121 151.135C342.997 151.597 342.936 152.089 342.936 152.609ZM342.701 144.611C342.701 144.318 342.792 144.071 342.975 143.869C343.157 143.667 343.421 143.566 343.766 143.566C344.117 143.566 344.384 143.667 344.566 143.869C344.749 144.071 344.84 144.318 344.84 144.611C344.84 144.891 344.749 145.132 344.566 145.334C344.384 145.529 344.117 145.627 343.766 145.627C343.421 145.627 343.157 145.529 342.975 145.334C342.792 145.132 342.701 144.891 342.701 144.611ZM346.91 144.631C346.91 144.338 346.998 144.09 347.174 143.889C347.356 143.687 347.623 143.586 347.975 143.586C348.32 143.586 348.583 143.687 348.766 143.889C348.954 144.09 349.049 144.338 349.049 144.631C349.049 144.911 348.954 145.152 348.766 145.354C348.583 145.549 348.32 145.646 347.975 145.646C347.623 145.646 347.356 145.549 347.174 145.354C346.998 145.152 346.91 144.911 346.91 144.631ZM360.729 156.516V158H353.043V156.516H360.729ZM360.445 148.713L353.453 158H352.35V156.672L359.293 147.434H360.445V148.713ZM359.645 147.434V148.928H352.428V147.434H359.645ZM366.402 147.219C367.132 147.219 367.789 147.349 368.375 147.609C368.967 147.87 369.472 148.238 369.889 148.713C370.305 149.182 370.624 149.738 370.846 150.383C371.074 151.027 371.188 151.734 371.188 152.502V152.932C371.188 153.7 371.064 154.406 370.816 155.051C370.576 155.695 370.243 156.252 369.82 156.721C369.397 157.189 368.915 157.554 368.375 157.814C367.835 158.068 367.268 158.192 366.676 158.186C365.947 158.186 365.312 158.072 364.771 157.844C364.231 157.609 363.782 157.284 363.424 156.867C363.072 156.444 362.809 155.946 362.633 155.373C362.457 154.8 362.369 154.169 362.369 153.479V152.287H370.113V153.771H364.176V154.016C364.176 154.484 364.264 154.924 364.439 155.334C364.615 155.744 364.889 156.076 365.26 156.33C365.631 156.584 366.103 156.711 366.676 156.711C367.066 156.711 367.424 156.613 367.75 156.418C368.082 156.223 368.368 155.952 368.609 155.607C368.85 155.262 369.036 154.862 369.166 154.406C369.303 153.944 369.371 153.452 369.371 152.932V152.502C369.371 151.981 369.306 151.493 369.176 151.037C369.052 150.575 368.867 150.171 368.619 149.826C368.372 149.475 368.062 149.201 367.691 149.006C367.32 148.804 366.891 148.703 366.402 148.703C365.693 148.703 365.094 148.807 364.605 149.016C364.117 149.217 363.71 149.465 363.385 149.758L362.672 148.527C362.997 148.215 363.46 147.919 364.059 147.639C364.664 147.359 365.445 147.219 366.402 147.219ZM375.289 143V158H373.473V143H375.289Z" fill="black" />
                                    <rect x="173.5" y="127.5" width="89" height="44" fill="#8E8E8E" stroke="black" />
                                    <path d="M203.406 155.043C203.406 154.737 203.501 154.48 203.689 154.271C203.885 154.057 204.165 153.949 204.529 153.949C204.894 153.949 205.171 154.057 205.359 154.271C205.555 154.48 205.652 154.737 205.652 155.043C205.652 155.342 205.555 155.596 205.359 155.805C205.171 156.013 204.894 156.117 204.529 156.117C204.165 156.117 203.885 156.013 203.689 155.805C203.501 155.596 203.406 155.342 203.406 155.043ZM208.68 155.043C208.68 154.737 208.774 154.48 208.963 154.271C209.158 154.057 209.438 153.949 209.803 153.949C210.167 153.949 210.444 154.057 210.633 154.271C210.828 154.48 210.926 154.737 210.926 155.043C210.926 155.342 210.828 155.596 210.633 155.805C210.444 156.013 210.167 156.117 209.803 156.117C209.438 156.117 209.158 156.013 208.963 155.805C208.774 155.596 208.68 155.342 208.68 155.043ZM213.953 155.043C213.953 154.737 214.048 154.48 214.236 154.271C214.432 154.057 214.712 153.949 215.076 153.949C215.441 153.949 215.717 154.057 215.906 154.271C216.102 154.48 216.199 154.737 216.199 155.043C216.199 155.342 216.102 155.596 215.906 155.805C215.717 156.013 215.441 156.117 215.076 156.117C214.712 156.117 214.432 156.013 214.236 155.805C214.048 155.596 213.953 155.342 213.953 155.043ZM219.227 155.043C219.227 154.737 219.321 154.48 219.51 154.271C219.705 154.057 219.985 153.949 220.35 153.949C220.714 153.949 220.991 154.057 221.18 154.271C221.375 154.48 221.473 154.737 221.473 155.043C221.473 155.342 221.375 155.596 221.18 155.805C220.991 156.013 220.714 156.117 220.35 156.117C219.985 156.117 219.705 156.013 219.51 155.805C219.321 155.596 219.227 155.342 219.227 155.043ZM224.5 155.043C224.5 154.737 224.594 154.48 224.783 154.271C224.979 154.057 225.258 153.949 225.623 153.949C225.988 153.949 226.264 154.057 226.453 154.271C226.648 154.48 226.746 154.737 226.746 155.043C226.746 155.342 226.648 155.596 226.453 155.805C226.264 156.013 225.988 156.117 225.623 156.117C225.258 156.117 224.979 156.013 224.783 155.805C224.594 155.596 224.5 155.342 224.5 155.043Z" fill="black" />
                                    <rect x="172.5" y="62.5" width="89" height="44" fill="#8E8E8E" stroke="black" />
                                    <path d="M202.406 90.043C202.406 89.737 202.501 89.4798 202.689 89.2715C202.885 89.0566 203.165 88.9492 203.529 88.9492C203.894 88.9492 204.171 89.0566 204.359 89.2715C204.555 89.4798 204.652 89.737 204.652 90.043C204.652 90.3424 204.555 90.5964 204.359 90.8047C204.171 91.013 203.894 91.1172 203.529 91.1172C203.165 91.1172 202.885 91.013 202.689 90.8047C202.501 90.5964 202.406 90.3424 202.406 90.043ZM207.68 90.043C207.68 89.737 207.774 89.4798 207.963 89.2715C208.158 89.0566 208.438 88.9492 208.803 88.9492C209.167 88.9492 209.444 89.0566 209.633 89.2715C209.828 89.4798 209.926 89.737 209.926 90.043C209.926 90.3424 209.828 90.5964 209.633 90.8047C209.444 91.013 209.167 91.1172 208.803 91.1172C208.438 91.1172 208.158 91.013 207.963 90.8047C207.774 90.5964 207.68 90.3424 207.68 90.043ZM212.953 90.043C212.953 89.737 213.048 89.4798 213.236 89.2715C213.432 89.0566 213.712 88.9492 214.076 88.9492C214.441 88.9492 214.717 89.0566 214.906 89.2715C215.102 89.4798 215.199 89.737 215.199 90.043C215.199 90.3424 215.102 90.5964 214.906 90.8047C214.717 91.013 214.441 91.1172 214.076 91.1172C213.712 91.1172 213.432 91.013 213.236 90.8047C213.048 90.5964 212.953 90.3424 212.953 90.043ZM218.227 90.043C218.227 89.737 218.321 89.4798 218.51 89.2715C218.705 89.0566 218.985 88.9492 219.35 88.9492C219.714 88.9492 219.991 89.0566 220.18 89.2715C220.375 89.4798 220.473 89.737 220.473 90.043C220.473 90.3424 220.375 90.5964 220.18 90.8047C219.991 91.013 219.714 91.1172 219.35 91.1172C218.985 91.1172 218.705 91.013 218.51 90.8047C218.321 90.5964 218.227 90.3424 218.227 90.043ZM223.5 90.043C223.5 89.737 223.594 89.4798 223.783 89.2715C223.979 89.0566 224.258 88.9492 224.623 88.9492C224.988 88.9492 225.264 89.0566 225.453 89.2715C225.648 89.4798 225.746 89.737 225.746 90.043C225.746 90.3424 225.648 90.5964 225.453 90.8047C225.264 91.013 224.988 91.1172 224.623 91.1172C224.258 91.1172 223.979 91.013 223.783 90.8047C223.594 90.5964 223.5 90.3424 223.5 90.043Z" fill="black" />
                                    <path d="M121.939 20.9393C121.354 21.5251 121.354 22.4749 121.939 23.0607L131.485 32.6066C132.071 33.1924 133.021 33.1924 133.607 32.6066C134.192 32.0208 134.192 31.0711 133.607 30.4853L125.121 22L133.607 13.5147C134.192 12.9289 134.192 11.9792 133.607 11.3934C133.021 10.8076 132.071 10.8076 131.485 11.3934L121.939 20.9393ZM165 20.5L123 20.5V23.5L165 23.5V20.5Z" fill="black" />
                                    <path d="M171.061 23.0607C171.646 22.4749 171.646 21.5251 171.061 20.9393L161.515 11.3934C160.929 10.8076 159.979 10.8076 159.393 11.3934C158.808 11.9792 158.808 12.9289 159.393 13.5147L167.879 22L159.393 30.4853C158.808 31.0711 158.808 32.0208 159.393 32.6066C159.979 33.1924 160.929 33.1924 161.515 32.6066L171.061 23.0607ZM128 23.5H170V20.5H128V23.5Z" fill="black" />
                                    <path d="M121.939 85.9393C121.354 86.5251 121.354 87.4749 121.939 88.0607L131.485 97.6066C132.071 98.1924 133.021 98.1924 133.607 97.6066C134.192 97.0208 134.192 96.0711 133.607 95.4853L125.121 87L133.607 78.5147C134.192 77.9289 134.192 76.9792 133.607 76.3934C133.021 75.8076 132.071 75.8076 131.485 76.3934L121.939 85.9393ZM165 85.5H123V88.5H165V85.5Z" fill="black" />
                                    <path d="M171.061 88.0607C171.646 87.4749 171.646 86.5251 171.061 85.9393L161.515 76.3934C160.929 75.8076 159.979 75.8076 159.393 76.3934C158.808 76.9792 158.808 77.9289 159.393 78.5147L167.879 87L159.393 95.4853C158.808 96.0711 158.808 97.0208 159.393 97.6066C159.979 98.1924 160.929 98.1924 161.515 97.6066L171.061 88.0607ZM128 88.5H170V85.5H128V88.5Z" fill="black" />
                                    <path d="M262.939 85.9393C262.354 86.5251 262.354 87.4749 262.939 88.0607L272.485 97.6066C273.071 98.1924 274.021 98.1924 274.607 97.6066C275.192 97.0208 275.192 96.0711 274.607 95.4853L266.121 87L274.607 78.5147C275.192 77.9289 275.192 76.9792 274.607 76.3934C274.021 75.8076 273.071 75.8076 272.485 76.3934L262.939 85.9393ZM306 85.5H264V88.5H306V85.5Z" fill="black" />
                                    <path d="M312.061 88.0607C312.646 87.4749 312.646 86.5251 312.061 85.9393L302.515 76.3934C301.929 75.8076 300.979 75.8076 300.393 76.3934C299.808 76.9792 299.808 77.9289 300.393 78.5147L308.879 87L300.393 95.4853C299.808 96.0711 299.808 97.0208 300.393 97.6066C300.979 98.1924 301.929 98.1924 302.515 97.6066L312.061 88.0607ZM269 88.5H311V85.5H269V88.5Z" fill="black" />
                                    <path d="M262.939 149.939C262.354 150.525 262.354 151.475 262.939 152.061L272.485 161.607C273.071 162.192 274.021 162.192 274.607 161.607C275.192 161.021 275.192 160.071 274.607 159.485L266.121 151L274.607 142.515C275.192 141.929 275.192 140.979 274.607 140.393C274.021 139.808 273.071 139.808 272.485 140.393L262.939 149.939ZM306 149.5H264V152.5H306V149.5Z" fill="black" />
                                    <path d="M312.061 152.061C312.646 151.475 312.646 150.525 312.061 149.939L302.515 140.393C301.929 139.808 300.979 139.808 300.393 140.393C299.808 140.979 299.808 141.929 300.393 142.515L308.879 151L300.393 159.485C299.808 160.071 299.808 161.021 300.393 161.607C300.979 162.192 301.929 162.192 302.515 161.607L312.061 152.061ZM269 152.5H311V149.5H269V152.5Z" fill="black" />
                                    <path d="M121.939 147.939C121.354 148.525 121.354 149.475 121.939 150.061L131.485 159.607C132.071 160.192 133.021 160.192 133.607 159.607C134.192 159.021 134.192 158.071 133.607 157.485L125.121 149L133.607 140.515C134.192 139.929 134.192 138.979 133.607 138.393C133.021 137.808 132.071 137.808 131.485 138.393L121.939 147.939ZM165 147.5H123V150.5H165V147.5Z" fill="black" />
                                    <path d="M171.061 150.061C171.646 149.475 171.646 148.525 171.061 147.939L161.515 138.393C160.929 137.808 159.979 137.808 159.393 138.393C158.808 138.979 158.808 139.929 159.393 140.515L167.879 149L159.393 157.485C158.808 158.071 158.808 159.021 159.393 159.607C159.979 160.192 160.929 160.192 161.515 159.607L171.061 150.061ZM128 150.5H170V147.5H128V150.5Z" fill="black" />
                                    <path d="M262.939 23.9393C262.354 24.5251 262.354 25.4749 262.939 26.0607L272.485 35.6066C273.071 36.1924 274.021 36.1924 274.607 35.6066C275.192 35.0208 275.192 34.0711 274.607 33.4853L266.121 25L274.607 16.5147C275.192 15.9289 275.192 14.9792 274.607 14.3934C274.021 13.8076 273.071 13.8076 272.485 14.3934L262.939 23.9393ZM306 23.5L264 23.5V26.5L306 26.5V23.5Z" fill="black" />
                                    <path d="M312.061 26.0607C312.646 25.4749 312.646 24.5251 312.061 23.9393L302.515 14.3934C301.929 13.8076 300.979 13.8076 300.393 14.3934C299.808 14.9792 299.808 15.9289 300.393 16.5147L308.879 25L300.393 33.4853C299.808 34.0711 299.808 35.0208 300.393 35.6066C300.979 36.1924 301.929 36.1924 302.515 35.6066L312.061 26.0607ZM269 26.5H311V23.5H269V26.5Z" fill="black" />
                                    <path d="M8.81592 15.6035V32H5.83984V19.0737L1.89795 20.3765V17.9731L8.479 15.6035H8.81592ZM14.4092 30.7402C14.4092 30.3496 14.5426 30.0208 14.8096 29.7539C15.0765 29.487 15.4378 29.3535 15.8936 29.3535C16.3493 29.3535 16.7106 29.487 16.9775 29.7539C17.2445 30.0208 17.3779 30.3496 17.3779 30.7402C17.3779 31.1243 17.2445 31.4499 16.9775 31.7168C16.7106 31.9772 16.3493 32.1074 15.8936 32.1074C15.4378 32.1074 15.0765 31.9772 14.8096 31.7168C14.5426 31.4499 14.4092 31.1243 14.4092 30.7402Z" fill="black" />
                                    <path d="M3.84766 144.748H5.30273C5.81706 144.748 6.24023 144.66 6.57227 144.484C6.91081 144.302 7.16146 144.055 7.32422 143.742C7.49349 143.423 7.57812 143.055 7.57812 142.639C7.57812 142.229 7.50326 141.874 7.35352 141.574C7.20378 141.268 6.97591 141.034 6.66992 140.871C6.37044 140.702 5.98633 140.617 5.51758 140.617C5.13997 140.617 4.79167 140.692 4.47266 140.842C4.16016 140.992 3.90951 141.206 3.7207 141.486C3.53841 141.76 3.44727 142.089 3.44727 142.473H0.859375C0.859375 141.704 1.0612 141.031 1.46484 140.451C1.875 139.865 2.42839 139.406 3.125 139.074C3.82161 138.742 4.59961 138.576 5.45898 138.576C6.39648 138.576 7.2168 138.732 7.91992 139.045C8.62956 139.351 9.17969 139.803 9.57031 140.402C9.96745 141.001 10.166 141.743 10.166 142.629C10.166 143.052 10.0651 143.475 9.86328 143.898C9.66797 144.315 9.37826 144.693 8.99414 145.031C8.61654 145.363 8.15104 145.633 7.59766 145.842C7.05078 146.044 6.42253 146.145 5.71289 146.145H3.84766V144.748ZM3.84766 146.74V145.363H5.71289C6.51367 145.363 7.20703 145.458 7.79297 145.646C8.38542 145.829 8.8737 146.089 9.25781 146.428C9.64193 146.76 9.92513 147.147 10.1074 147.59C10.2962 148.033 10.3906 148.508 10.3906 149.016C10.3906 149.68 10.2669 150.272 10.0195 150.793C9.77214 151.307 9.42383 151.743 8.97461 152.102C8.5319 152.46 8.01107 152.733 7.41211 152.922C6.81315 153.104 6.16536 153.195 5.46875 153.195C4.86328 153.195 4.27409 153.114 3.70117 152.951C3.13477 152.782 2.6237 152.531 2.16797 152.199C1.71224 151.861 1.35091 151.438 1.08398 150.93C0.817057 150.415 0.683594 149.82 0.683594 149.143H3.27148C3.27148 149.533 3.36589 149.882 3.55469 150.188C3.75 150.493 4.01693 150.734 4.35547 150.91C4.70052 151.079 5.08789 151.164 5.51758 151.164C5.99284 151.164 6.39974 151.079 6.73828 150.91C7.08333 150.734 7.34701 150.487 7.5293 150.168C7.71159 149.842 7.80273 149.455 7.80273 149.006C7.80273 148.472 7.70182 148.039 7.5 147.707C7.29818 147.375 7.00846 147.131 6.63086 146.975C6.25977 146.818 5.81706 146.74 5.30273 146.74H3.84766ZM12.6953 151.74C12.6953 151.35 12.8288 151.021 13.0957 150.754C13.3626 150.487 13.724 150.354 14.1797 150.354C14.6354 150.354 14.9967 150.487 15.2637 150.754C15.5306 151.021 15.6641 151.35 15.6641 151.74C15.6641 152.124 15.5306 152.45 15.2637 152.717C14.9967 152.977 14.6354 153.107 14.1797 153.107C13.724 153.107 13.3626 152.977 13.0957 152.717C12.8288 152.45 12.6953 152.124 12.6953 151.74Z" fill="black" />
                                    <path d="M10.6543 88.9688V91H1.02539V89.2617L5.64453 84.2715C6.1263 83.7246 6.50716 83.2493 6.78711 82.8457C7.06706 82.4421 7.26562 82.0775 7.38281 81.752C7.50651 81.4199 7.56836 81.1042 7.56836 80.8047C7.56836 80.3685 7.49023 79.9876 7.33398 79.6621C7.17773 79.3301 6.94987 79.0729 6.65039 78.8906C6.35742 78.7083 5.99609 78.6172 5.56641 78.6172C5.09115 78.6172 4.68424 78.7279 4.3457 78.9492C4.01367 79.1641 3.75977 79.4635 3.58398 79.8477C3.41471 80.2318 3.33008 80.6712 3.33008 81.166H0.742188C0.742188 80.3262 0.9375 79.5612 1.32812 78.8711C1.71875 78.1745 2.27865 77.6178 3.00781 77.2012C3.73698 76.7845 4.60286 76.5762 5.60547 76.5762C6.58203 76.5762 7.40885 76.7389 8.08594 77.0645C8.76302 77.3835 9.27734 77.8392 9.62891 78.4316C9.98047 79.0241 10.1562 79.7305 10.1562 80.5508C10.1562 81.0065 10.0814 81.4557 9.93164 81.8984C9.7819 82.3411 9.57031 82.7806 9.29688 83.2168C9.02995 83.6465 8.71094 84.0827 8.33984 84.5254C7.96875 84.9681 7.55534 85.4206 7.09961 85.8828L4.32617 88.9688H10.6543ZM12.6953 89.7402C12.6953 89.3496 12.8288 89.0208 13.0957 88.7539C13.3626 88.487 13.724 88.3535 14.1797 88.3535C14.6354 88.3535 14.9967 88.487 15.2637 88.7539C15.5306 89.0208 15.6641 89.3496 15.6641 89.7402C15.6641 90.1243 15.5306 90.4499 15.2637 90.7168C14.9967 90.9772 14.6354 91.1074 14.1797 91.1074C13.724 91.1074 13.3626 90.9772 13.0957 90.7168C12.8288 90.4499 12.6953 90.1243 12.6953 89.7402Z" fill="black" />
                                </svg>