<?xml version="1.0" encoding="UTF-8" standalone="no"?>
<svg
   xmlns:dc="http://purl.org/dc/elements/1.1/"
   xmlns:cc="http://creativecommons.org/ns#"
   xmlns:rdf="http://www.w3.org/1999/02/22-rdf-syntax-ns#"
   xmlns:svg="http://www.w3.org/2000/svg"
   xmlns="http://www.w3.org/2000/svg"
   xmlns:sodipodi="http://sodipodi.sourceforge.net/DTD/sodipodi-0.dtd"
   xmlns:inkscape="http://www.inkscape.org/namespaces/inkscape"
   width="180.48727mm"
   height="137.40648mm"
   viewBox="0 0 180.48727 137.40648"
   version="1.1"
   id="svg8"
   inkscape:version="1.0.1 (3bc2e813f5, 2020-09-07)"
   sodipodi:docname="cap-colored.svg">
  <defs
     id="defs2" />
  <sodipodi:namedview
     id="base"
     pagecolor="#ffffff"
     bordercolor="#666666"
     borderopacity="1.0"
     inkscape:pageopacity="0.0"
     inkscape:pageshadow="2"
     inkscape:zoom="0.35"
     inkscape:cx="312.50689"
     inkscape:cy="356.80864"
     inkscape:document-units="mm"
     inkscape:current-layer="layer1"
     inkscape:document-rotation="0"
     showgrid="false"
     inkscape:window-width="1346"
     inkscape:window-height="1040"
     inkscape:window-x="78"
     inkscape:window-y="0"
     inkscape:window-maximized="0" />
  <metadata
     id="metadata5">
    <rdf:RDF>
      <cc:Work
         rdf:about="">
        <dc:format>image/svg+xml</dc:format>
        <dc:type
           rdf:resource="http://purl.org/dc/dcmitype/StillImage" />
        <dc:title></dc:title>
      </cc:Work>
    </rdf:RDF>
  </metadata>
  <g
     inkscape:label="Layer 1"
     inkscape:groupmode="layer"
     id="layer1"
     transform="translate(-23.149218,-53.761047)">
    <path
       d="m 109.80361,53.972232 c -1.30528,0.17639 -3.59833,0.77612 -5.11528,1.34056 -3.81,1.41111 -76.552777,36.230281 -77.999167,37.323892 -1.76389,1.340556 -3.175,3.4925 -3.45722,5.291667 -0.56444,3.880559 1.72861,6.808609 7.83167,9.877779 l 4.02166,2.04611 v 16.43944 16.43945 l -1.69333,1.09361 c -3.66889,2.36361 -5.43278,6.91445 -4.30389,11.00667 0.56445,2.08139 2.36361,4.55083 4.05695,5.57389 0.84666,0.52917 1.5875,1.09361 1.5875,1.27 0,0.24694 -8.5725,27.72833 -9.06639,28.99833 -0.14111,0.42334 2.01083,0.49389 12.94694,0.49389 11.71222,0 13.08806,-0.0705 12.91167,-0.52916 -0.56445,-1.48167 -9.03111,-28.64556 -9.03111,-28.99834 0,-0.21167 0.45861,-0.56444 1.02305,-0.77611 3.38667,-1.44639 5.78556,-7.05556 4.65667,-11.14778 -0.59972,-2.32833 -2.32833,-4.69194 -4.26861,-5.89139 l -1.76389,-1.09361 v -14.56972 c 0,-8.04334 0.10583,-14.605 0.24694,-14.605 0.14111,0 2.61056,1.12889 5.46806,2.54 l 5.22111,2.50472 v 21.9075 c 0,21.69584 0,21.9075 0.74083,23.14223 1.16417,1.905 8.96056,9.45444 12.48834,12.065 10.58333,7.86694 22.86,12.84111 36.159717,14.64027 5.36222,0.70556 16.15722,0.70556 21.51945,0 13.47611,-1.83444 25.4,-6.6675 36.15972,-14.605 3.84528,-2.8575 11.78278,-10.72444 12.62945,-12.52361 0.52916,-1.16417 0.59972,-3.13972 0.59972,-22.82472 v -21.59 l 12.87639,-6.31473 c 7.09083,-3.45722 13.51139,-6.80861 14.2875,-7.40833 1.97555,-1.55222 3.31611,-4.48028 3.06916,-6.526389 -0.3175,-2.187222 -1.37583,-4.092222 -3.03388,-5.503333 -2.11667,-1.834445 -75.52973,-37.570836 -78.88112,-38.417506 -3.175,-0.81139 -8.67833,-1.12889 -11.88861,-0.67028 z m 10.61861,7.19667 c 1.05833,0.3175 15.73389,7.33778 32.63195,15.59278 16.89805,8.255002 33.61972,16.439447 37.11222,18.13278 3.52778,1.728611 6.52639,3.386667 6.63222,3.704167 0.14111,0.352778 -0.0353,0.881944 -0.38805,1.305278 -0.635,0.705553 -25.50584,13.123333 -27.12861,13.511393 -0.45862,0.10583 -0.98778,0.42333 -1.19945,0.67027 -0.21167,0.24695 -10.86555,5.53861 -23.74194,11.7475 -17.32139,8.39612 -23.88306,11.39473 -25.43528,11.67695 -2.96334,0.52917 -7.40834,0.45861 -10.05417,-0.14111 -1.48167,-0.35278 -10.830277,-4.65667 -26.987497,-12.41778 -13.61722,-6.52639 -26.24667,-12.55889 -28.08111,-13.44083 -1.83445,-0.88195 -3.175,-1.65806 -2.99862,-1.69334 0.21167,-0.0706 14.56973,-1.79916 31.92639,-3.84528 33.972507,-3.98638 32.914167,-3.81 33.655007,-5.96194 0.45861,-1.199444 -0.0353,-2.575278 -1.27,-3.4925 l -0.9525,-0.705556 -36.618337,4.303886 c -20.14361,2.36361 -37.00639,4.30389 -37.50028,4.33917 -1.19944,0.0706 -9.70139,-4.09222 -10.01889,-4.903611 -0.17639,-0.458611 0,-0.811389 0.59973,-1.27 0.88194,-0.670278 71.119997,-34.572227 74.859437,-36.124447 3.38667,-1.41111 5.99722,-1.86972 9.70139,-1.69333 1.83445,0.0706 4.19806,0.42333 5.25639,0.70555 z M 81.193333,131.75974 c 11.60639,5.53861 21.836947,10.37167 22.754167,10.72445 0.88194,0.38805 2.96333,0.9525 4.55083,1.27 3.73945,0.74083 10.37167,0.49389 13.54667,-0.49389 1.16417,-0.35278 11.57111,-5.29167 23.14222,-10.93611 11.53584,-5.67973 21.09611,-10.30112 21.23723,-10.30112 0.14111,0 0.24694,8.71361 0.24694,19.36751 v 19.3675 l -2.50472,2.68111 c -7.76111,8.29028 -18.97945,15.02833 -30.62111,18.37972 -12.20612,3.4925 -26.88167,3.66889 -38.840837,0.45861 -7.05556,-1.86972 -15.31056,-5.57389 -21.02556,-9.38389 -3.91583,-2.64583 -10.01889,-7.83166 -12.20611,-10.40694 l -1.69333,-1.97556 v -19.40278 c 0,-10.68917 0.0706,-19.43805 0.17639,-19.43805 0.0705,0 9.63083,4.55083 21.23722,10.08944 z"
       id="path904"
       style="fill:#ffc301;stroke:none;stroke-width:0.0352778;fill-opacity:1" />
  </g>
</svg>
