<svg width="150" height="150" viewBox="0 0 150 150" fill="none" xmlns="http://www.w3.org/2000/svg">
<path d="M31.75 75.81C31.75 77.58 31.12 79.08 29.89 80.31C28.63 81.54 27.13 82.17 25.36 82.17C23.62 82.17 22.12 81.54 20.86 80.31C19.63 79.05 19 77.55 19 75.81C19 74.04 19.63 72.54 20.86 71.28C22.12 70.05 23.62 69.42 25.36 69.42C27.13 69.42 28.63 70.05 29.89 71.28C31.12 72.51 31.75 74.04 31.75 75.81ZM31.75 70.56L31.18 69.99C29.59 68.4 27.64 67.59 25.36 67.59C23.11 67.59 21.16 68.4 19.57 69.99C17.98 71.58 17.17 73.53 17.17 75.81C17.17 78.06 17.98 80.01 19.57 81.6C21.16 83.19 23.11 84 25.36 84C27.64 84 29.59 83.19 31.18 81.6C32.77 80.01 33.58 78.06 33.58 75.81V61.47C33.58 60.96 33.16 60.57 32.68 60.57C32.17 60.57 31.75 60.96 31.75 61.47V70.56ZM44.71 69.42C46.48 69.42 47.98 70.05 49.24 71.28C50.47 72.51 51.1 74.04 51.1 75.81C51.1 77.58 50.47 79.08 49.24 80.31C47.98 81.54 46.48 82.17 44.71 82.17C42.97 82.17 41.47 81.54 40.21 80.31C38.98 79.05 38.35 77.55 38.35 75.81C38.35 74.04 38.98 72.54 40.21 71.28C41.47 70.05 42.97 69.42 44.71 69.42ZM51.1 83.1C51.1 83.58 51.52 84 52.03 84C52.51 84 52.93 83.58 52.93 83.1V75.81C52.93 73.53 52.12 71.58 50.53 69.99C48.94 68.4 46.99 67.59 44.71 67.59C42.46 67.59 40.51 68.4 38.92 69.99C37.33 71.58 36.52 73.53 36.52 75.81C36.52 78.06 37.33 80.01 38.92 81.6C40.51 83.19 42.46 84 44.71 84C46.99 84 49.12 83.01 51.1 81.03V83.1ZM55.9 83.1C55.9 83.58 56.29 84 56.8 84C57.31 84 57.7 83.58 57.7 83.1V75.21C57.7 73.59 58.27 72.24 59.38 71.13C60.52 69.99 61.87 69.42 63.46 69.42C65.05 69.42 66.43 69.99 67.54 71.13C68.68 72.24 69.25 73.59 69.25 75.21V83.1C69.25 83.58 69.64 84 70.15 84C70.66 84 71.08 83.58 71.08 83.1V75.21C71.08 73.11 70.33 71.31 68.83 69.81C67.36 68.34 65.59 67.59 63.46 67.59C61.42 67.59 59.5 68.46 57.7 70.2V61.44C57.7 60.93 57.31 60.54 56.8 60.54C56.29 60.54 55.9 60.93 55.9 61.44V83.1ZM77.4981 63.63C77.4981 63 76.9581 62.43 76.2681 62.43C75.6381 62.43 75.0681 63 75.0681 63.63C75.0681 64.32 75.6381 64.86 76.2681 64.86C76.9581 64.86 77.4981 64.32 77.4981 63.63ZM75.3681 83.1C75.3681 83.58 75.7881 84 76.2681 84C76.7781 84 77.1981 83.58 77.1981 83.1V68.49C77.1981 68.01 76.7781 67.59 76.2681 67.59C75.7881 67.59 75.3681 68.01 75.3681 68.49V83.1Z" fill="black"/>
<path d="M91.7962 77.97C92.3962 78.18 92.7262 78.6 92.7562 79.23C92.7562 79.74 92.6062 80.16 92.3062 80.49C91.2562 81.6 89.8462 82.17 88.0762 82.17C86.3062 82.17 84.8062 81.54 83.5462 80.31L83.0962 79.86C82.9462 79.71 82.7362 79.62 82.5262 79.62C82.0162 79.62 81.5962 80.04 81.5962 80.55C81.5962 80.76 81.6562 80.91 81.7762 81.06C83.5162 83.01 85.6162 84 88.0762 84C90.3262 84 92.1562 83.28 93.5662 81.87C94.2562 81.18 94.6162 80.37 94.6162 79.44C94.6162 78.54 94.2862 77.76 93.5962 77.1C93.3262 76.74 92.6662 76.44 91.7962 76.08L84.3262 73.62C83.7262 73.38 83.3962 72.96 83.3662 72.36C83.3662 71.85 83.5162 71.43 83.8162 71.1C84.8662 69.99 86.3062 69.42 88.0762 69.42C89.8462 69.42 91.3462 70.05 92.5762 71.28L93.0262 71.73C93.1762 71.88 93.3562 71.97 93.5962 71.97C94.1062 71.97 94.5262 71.55 94.5262 71.04C94.5262 70.83 94.4662 70.68 94.3762 70.53C92.6662 68.64 90.4762 67.59 88.0762 67.59C85.8262 67.59 83.9662 68.31 82.5562 69.72C81.8662 70.44 81.5362 71.25 81.5362 72.15C81.5362 73.05 81.8662 73.83 82.5262 74.52C82.8562 74.85 83.4262 75.15 84.3562 75.51H84.3262L91.7962 77.97ZM111.584 76.71C111.314 78.18 110.684 79.38 109.754 80.31C108.494 81.54 106.994 82.17 105.254 82.17C103.484 82.17 101.984 81.54 100.724 80.31C99.7936 79.35 99.1636 78.15 98.8936 76.71H111.584ZM100.574 71.13C100.784 71.13 100.964 71.07 101.144 70.92C102.254 69.93 103.604 69.42 105.254 69.42C106.994 69.42 108.494 70.05 109.754 71.28C110.684 72.21 111.314 73.41 111.584 74.88H97.9336C97.4536 74.88 97.0336 75.3 97.0336 75.78C97.0336 78.06 97.8436 80.01 99.4336 81.6C101.024 83.19 102.974 84 105.254 84C107.504 84 109.454 83.19 111.044 81.6C112.634 80.01 113.444 78.06 113.444 75.78C113.444 73.53 112.634 71.58 111.044 69.99C109.454 68.4 107.504 67.59 105.254 67.59C103.184 67.59 101.414 68.25 99.8836 69.57C99.7336 69.72 99.6436 69.93 99.6436 70.2C99.6436 70.71 100.064 71.13 100.574 71.13ZM115.814 83.1C115.814 83.58 116.204 84 116.714 84C117.224 84 117.614 83.58 117.614 83.1V75.21C117.614 73.59 118.184 72.24 119.294 71.13C120.434 69.99 121.784 69.42 123.374 69.42C124.964 69.42 126.344 69.99 127.454 71.13C128.594 72.24 129.164 73.59 129.164 75.21V83.1C129.164 83.58 129.554 84 130.064 84C130.574 84 130.994 83.58 130.994 83.1V75.21C130.994 73.11 130.244 71.31 128.744 69.81C127.274 68.34 125.504 67.59 123.374 67.59C121.334 67.59 119.414 68.46 117.614 70.2V68.49C117.614 68.01 117.224 67.59 116.714 67.59C116.204 67.59 115.814 68.01 115.814 68.49V83.1Z" fill="black"/>
<circle cx="75" cy="75" r="74.25" fill="#C4C4C4" fill-opacity="0.08" stroke="black" stroke-width="1.5"/>
</svg>
