<svg width="80" height="80" viewBox="0 0 80 80" fill="none" xmlns="http://www.w3.org/2000/svg">
<circle cx="40" cy="40" r="40" transform="rotate(-90 40 40)" fill="#E6E8F0"/>
<circle cx="40" cy="40" r="39.5" transform="rotate(-90 40 40)" stroke="black" stroke-opacity="0.15"/>
<path d="M48.5607 41.5607C49.1464 40.9749 49.1464 40.0251 48.5607 39.4393L39.0147 29.8934C38.4289 29.3076 37.4792 29.3076 36.8934 29.8934C36.3076 30.4792 36.3076 31.4289 36.8934 32.0147L45.3787 40.5L36.8934 48.9853C36.3076 49.5711 36.3076 50.5208 36.8934 51.1066C37.4792 51.6924 38.4289 51.6924 39.0147 51.1066L48.5607 41.5607ZM46.5 42H47.5V39H46.5V42Z" fill="black"/>
</svg>
