<?xml version="1.0" standalone="no"?>
<!DOCTYPE svg PUBLIC "-//W3C//DTD SVG 20010904//EN"
 "http://www.w3.org/TR/2001/REC-SVG-20010904/DTD/svg10.dtd">
<svg version="1.0" xmlns="http://www.w3.org/2000/svg"
 width="512.000000pt" height="512.000000pt" viewBox="0 0 512.000000 512.000000"
 preserveAspectRatio="xMidYMid meet">

<g transform="translate(0.000000,512.000000) scale(0.100000,-0.100000)"
fill="#000000" stroke="none">
<path d="M2503 4856 l-28 -24 -3 -569 -3 -568 -600 -335 c-330 -184 -611 -346
-625 -359 -23 -23 -24 -29 -24 -147 l0 -124 -557 0 c-356 0 -572 -4 -595 -11
-73 -20 -68 66 -68 -1244 l0 -1177 29 -29 29 -29 2502 0 2502 0 29 29 29 29 0
1176 c0 840 -3 1182 -11 1199 -6 14 -21 30 -33 36 -15 8 -195 12 -596 14
l-575 2 -3 120 c-1 66 -7 130 -13 141 -7 14 -241 151 -625 365 l-613 344 -1
173 0 172 120 0 120 0 0 -80 c0 -72 3 -84 24 -105 14 -14 41 -26 67 -30 24 -3
202 -5 396 -3 l351 3 26 24 c36 34 34 73 -10 198 l-36 102 35 98 c41 112 44
127 34 165 -13 50 -47 58 -237 58 l-170 0 0 71 c0 71 -10 104 -39 126 -12 9
-103 12 -347 13 l-332 0 -4 76 c-3 69 -6 79 -31 100 -36 31 -78 31 -114 0z
m687 -491 l0 -145 -270 0 -270 0 0 145 0 145 270 0 270 0 0 -145z m370 -89 c0
-7 -7 -33 -15 -56 -19 -53 -19 -98 -1 -141 7 -19 17 -44 20 -56 l7 -23 -255 0
c-249 0 -256 1 -256 20 0 19 7 20 103 20 185 0 207 18 207 165 l0 85 95 0 c74
0 95 -3 95 -14z m-405 -1064 l570 -320 3 -1236 2 -1236 -220 0 -220 0 -2 566
-3 566 -28 24 -28 24 -669 0 -669 0 -28 -24 -28 -24 -3 -566 -2 -566 -220 0
-220 0 0 1234 0 1234 578 326 c347 196 585 324 597 322 11 -2 277 -147 590
-324z m-1935 -1727 l0 -1065 -520 0 -520 0 0 1065 0 1065 520 0 520 0 0 -1065z
m3720 0 l0 -1065 -520 0 -520 0 0 1065 0 1065 520 0 520 0 0 -1065z m-2470
-565 l0 -500 -230 0 -230 0 0 500 0 500 230 0 230 0 0 -500z m640 0 l0 -500
-230 0 -230 0 0 500 0 500 230 0 230 0 0 -500z"/>
<path d="M2500 3268 c-108 -16 -218 -96 -268 -194 -92 -182 -17 -406 166 -496
61 -30 74 -33 162 -33 88 0 101 3 162 33 149 73 231 238 198 398 -41 200 -218
323 -420 292z m140 -190 c24 -13 58 -40 74 -61 28 -35 31 -45 31 -112 0 -67
-3 -76 -31 -112 -45 -56 -86 -76 -153 -76 -64 0 -107 18 -144 62 -57 69 -62
174 -10 239 36 45 105 82 153 82 20 0 56 -10 80 -22z"/>
<path d="M1660 2265 l0 -85 175 0 175 0 0 85 0 85 -175 0 -175 0 0 -85z"/>
<path d="M2380 2265 l0 -85 180 0 180 0 0 85 0 85 -180 0 -180 0 0 -85z"/>
<path d="M3110 2265 l0 -85 175 0 175 0 0 85 0 85 -175 0 -175 0 0 -85z"/>
<path d="M1660 1855 l0 -85 175 0 175 0 0 85 0 85 -175 0 -175 0 0 -85z"/>
<path d="M2380 1855 l0 -85 180 0 180 0 0 85 0 85 -180 0 -180 0 0 -85z"/>
<path d="M3110 1855 l0 -85 175 0 175 0 0 85 0 85 -175 0 -175 0 0 -85z"/>
<path d="M390 2175 l0 -175 90 0 90 0 0 175 0 175 -90 0 -90 0 0 -175z"/>
<path d="M820 2175 l0 -175 90 0 90 0 0 175 0 175 -90 0 -90 0 0 -175z"/>
<path d="M390 1485 l0 -175 90 0 90 0 0 175 0 175 -90 0 -90 0 0 -175z"/>
<path d="M827 1653 c-4 -3 -7 -82 -7 -175 l0 -168 90 0 90 0 0 175 0 175 -83
0 c-46 0 -87 -3 -90 -7z"/>
<path d="M390 785 l0 -175 90 0 90 0 0 175 0 175 -90 0 -90 0 0 -175z"/>
<path d="M820 785 l0 -175 90 0 90 0 0 175 0 175 -90 0 -90 0 0 -175z"/>
<path d="M4120 2175 l0 -175 90 0 90 0 0 175 0 175 -90 0 -90 0 0 -175z"/>
<path d="M4550 2175 l0 -175 90 0 90 0 0 175 0 175 -90 0 -90 0 0 -175z"/>
<path d="M4120 1485 l0 -175 90 0 90 0 -2 173 -3 172 -87 3 -88 3 0 -176z"/>
<path d="M4550 1485 l0 -175 90 0 90 0 0 175 0 175 -90 0 -90 0 0 -175z"/>
<path d="M4120 785 l0 -175 90 0 90 0 0 175 0 175 -90 0 -90 0 0 -175z"/>
<path d="M4550 785 l0 -175 90 0 90 0 0 175 0 175 -90 0 -90 0 0 -175z"/>
</g>
</svg>
