<?xml version="1.0" encoding="UTF-8" standalone="no"?>
<svg
   xmlns:dc="http://purl.org/dc/elements/1.1/"
   xmlns:cc="http://creativecommons.org/ns#"
   xmlns:rdf="http://www.w3.org/1999/02/22-rdf-syntax-ns#"
   xmlns:svg="http://www.w3.org/2000/svg"
   xmlns="http://www.w3.org/2000/svg"
   xmlns:sodipodi="http://sodipodi.sourceforge.net/DTD/sodipodi-0.dtd"
   xmlns:inkscape="http://www.inkscape.org/namespaces/inkscape"
   width="180.6248mm"
   height="163.66245mm"
   viewBox="0 0 180.6248 163.66245"
   version="1.1"
   id="svg8"
   inkscape:version="1.0.1 (3bc2e813f5, 2020-09-07)"
   sodipodi:docname="university-colored.svg">
  <defs
     id="defs2" />
  <sodipodi:namedview
     id="base"
     pagecolor="#ffffff"
     bordercolor="#666666"
     borderopacity="1.0"
     inkscape:pageopacity="0.0"
     inkscape:pageshadow="2"
     inkscape:zoom="0.35"
     inkscape:cx="257.31039"
     inkscape:cy="518.8539"
     inkscape:document-units="mm"
     inkscape:current-layer="layer1"
     inkscape:document-rotation="0"
     showgrid="false"
     inkscape:window-width="1346"
     inkscape:window-height="1040"
     inkscape:window-x="78"
     inkscape:window-y="0"
     inkscape:window-maximized="0" />
  <metadata
     id="metadata5">
    <rdf:RDF>
      <cc:Work
         rdf:about="">
        <dc:format>image/svg+xml</dc:format>
        <dc:type
           rdf:resource="http://purl.org/dc/dcmitype/StillImage" />
        <dc:title></dc:title>
      </cc:Work>
    </rdf:RDF>
  </metadata>
  <g
     inkscape:label="Layer 1"
     inkscape:groupmode="layer"
     id="layer1"
     transform="translate(-37.753294,-10.886572)">
    <g
       transform="matrix(0.03527778,0,0,-0.03527778,37.755854,183.01568)"
       fill="#000000"
       stroke="none"
       id="g1004"
       style="fill:#ffc301;fill-opacity:1">
      <path
         d="m 2503,4856 -28,-24 -3,-569 -3,-568 -600,-335 c -330,-184 -611,-346 -625,-359 -23,-23 -24,-29 -24,-147 V 2730 H 663 C 307,2730 91,2726 68,2719 -5,2699 0,2785 0,1475 V 298 l 29,-29 29,-29 h 2502 2502 l 29,29 29,29 v 1176 c 0,840 -3,1182 -11,1199 -6,14 -21,30 -33,36 -15,8 -195,12 -596,14 l -575,2 -3,120 c -1,66 -7,130 -13,141 -7,14 -241,151 -625,365 l -613,344 -1,173 v 172 h 120 120 v -80 c 0,-72 3,-84 24,-105 14,-14 41,-26 67,-30 24,-3 202,-5 396,-3 l 351,3 26,24 c 36,34 34,73 -10,198 l -36,102 35,98 c 41,112 44,127 34,165 -13,50 -47,58 -237,58 h -170 v 71 c 0,71 -10,104 -39,126 -12,9 -103,12 -347,13 h -332 l -4,76 c -3,69 -6,79 -31,100 -36,31 -78,31 -114,0 z m 687,-491 v -145 h -270 -270 v 145 145 h 270 270 z m 370,-89 c 0,-7 -7,-33 -15,-56 -19,-53 -19,-98 -1,-141 7,-19 17,-44 20,-56 l 7,-23 h -255 c -249,0 -256,1 -256,20 0,19 7,20 103,20 185,0 207,18 207,165 v 85 h 95 c 74,0 95,-3 95,-14 z m -405,-1064 570,-320 3,-1236 2,-1236 h -220 -220 l -2,566 -3,566 -28,24 -28,24 h -669 -669 l -28,-24 -28,-24 -3,-566 -2,-566 h -220 -220 v 1234 1234 l 578,326 c 347,196 585,324 597,322 11,-2 277,-147 590,-324 z M 1220,1485 V 420 H 700 180 v 1065 1065 h 520 520 z m 3720,0 V 420 h -520 -520 v 1065 1065 h 520 520 z M 2470,920 V 420 h -230 -230 v 500 500 h 230 230 z m 640,0 V 420 h -230 -230 v 500 500 h 230 230 z"
         id="path964"
         style="fill:#ffc301;fill-opacity:1" />
      <path
         d="m 2500,3268 c -108,-16 -218,-96 -268,-194 -92,-182 -17,-406 166,-496 61,-30 74,-33 162,-33 88,0 101,3 162,33 149,73 231,238 198,398 -41,200 -218,323 -420,292 z m 140,-190 c 24,-13 58,-40 74,-61 28,-35 31,-45 31,-112 0,-67 -3,-76 -31,-112 -45,-56 -86,-76 -153,-76 -64,0 -107,18 -144,62 -57,69 -62,174 -10,239 36,45 105,82 153,82 20,0 56,-10 80,-22 z"
         id="path966"
         style="fill:#ffc301;fill-opacity:1" />
      <path
         d="m 1660,2265 v -85 h 175 175 v 85 85 h -175 -175 z"
         id="path968"
         style="fill:#ffc301;fill-opacity:1" />
      <path
         d="m 2380,2265 v -85 h 180 180 v 85 85 h -180 -180 z"
         id="path970"
         style="fill:#ffc301;fill-opacity:1" />
      <path
         d="m 3110,2265 v -85 h 175 175 v 85 85 h -175 -175 z"
         id="path972"
         style="fill:#ffc301;fill-opacity:1" />
      <path
         d="m 1660,1855 v -85 h 175 175 v 85 85 h -175 -175 z"
         id="path974"
         style="fill:#ffc301;fill-opacity:1" />
      <path
         d="m 2380,1855 v -85 h 180 180 v 85 85 h -180 -180 z"
         id="path976"
         style="fill:#ffc301;fill-opacity:1" />
      <path
         d="m 3110,1855 v -85 h 175 175 v 85 85 h -175 -175 z"
         id="path978"
         style="fill:#ffc301;fill-opacity:1" />
      <path
         d="m 390,2175 v -175 h 90 90 v 175 175 h -90 -90 z"
         id="path980"
         style="fill:#ffc301;fill-opacity:1" />
      <path
         d="m 820,2175 v -175 h 90 90 v 175 175 h -90 -90 z"
         id="path982"
         style="fill:#ffc301;fill-opacity:1" />
      <path
         d="m 390,1485 v -175 h 90 90 v 175 175 h -90 -90 z"
         id="path984"
         style="fill:#ffc301;fill-opacity:1" />
      <path
         d="m 827,1653 c -4,-3 -7,-82 -7,-175 v -168 h 90 90 v 175 175 h -83 c -46,0 -87,-3 -90,-7 z"
         id="path986"
         style="fill:#ffc301;fill-opacity:1" />
      <path
         d="M 390,785 V 610 h 90 90 v 175 175 h -90 -90 z"
         id="path988"
         style="fill:#ffc301;fill-opacity:1" />
      <path
         d="M 820,785 V 610 h 90 90 v 175 175 h -90 -90 z"
         id="path990"
         style="fill:#ffc301;fill-opacity:1" />
      <path
         d="m 4120,2175 v -175 h 90 90 v 175 175 h -90 -90 z"
         id="path992"
         style="fill:#ffc301;fill-opacity:1" />
      <path
         d="m 4550,2175 v -175 h 90 90 v 175 175 h -90 -90 z"
         id="path994"
         style="fill:#ffc301;fill-opacity:1" />
      <path
         d="m 4120,1485 v -175 h 90 90 l -2,173 -3,172 -87,3 -88,3 z"
         id="path996"
         style="fill:#ffc301;fill-opacity:1" />
      <path
         d="m 4550,1485 v -175 h 90 90 v 175 175 h -90 -90 z"
         id="path998"
         style="fill:#ffc301;fill-opacity:1" />
      <path
         d="M 4120,785 V 610 h 90 90 v 175 175 h -90 -90 z"
         id="path1000"
         style="fill:#ffc301;fill-opacity:1" />
      <path
         d="M 4550,785 V 610 h 90 90 v 175 175 h -90 -90 z"
         id="path1002"
         style="fill:#ffc301;fill-opacity:1" />
    </g>
  </g>
</svg>
